<mxfile host="app.diagrams.net" agent="Mozilla/5.0 (Windows NT 10.0; Win64; x64) AppleWebKit/537.36 (KHTML, like Gecko) Chrome/136.0.0.0 Safari/537.36" version="27.0.9">
  <diagram name="Page-1" id="4VqU5dPed7CWXqp9l9I1">
    <mxGraphModel dx="1426" dy="785" grid="1" gridSize="10" guides="1" tooltips="1" connect="1" arrows="1" fold="1" page="1" pageScale="1" pageWidth="850" pageHeight="1100" math="0" shadow="0">
      <root>
        <mxCell id="0" />
        <mxCell id="1" parent="0" />
        <mxCell id="HrxNk1Lv7Z8qmX8g74zy-1" value="" style="shape=umlLifeline;participant=umlActor;perimeter=lifelinePerimeter;whiteSpace=wrap;html=1;container=1;collapsible=0;recursiveResize=0;verticalAlign=top;spacingTop=36;outlineConnect=0;" parent="1" vertex="1">
          <mxGeometry x="210" y="120" width="20" height="930" as="geometry" />
        </mxCell>
        <mxCell id="HrxNk1Lv7Z8qmX8g74zy-5" value="SubmitStockRequest()" style="html=1;verticalAlign=bottom;endArrow=block;rounded=0;" parent="HrxNk1Lv7Z8qmX8g74zy-1" target="HrxNk1Lv7Z8qmX8g74zy-2" edge="1">
          <mxGeometry width="80" relative="1" as="geometry">
            <mxPoint x="10" y="90" as="sourcePoint" />
            <mxPoint x="90" y="90" as="targetPoint" />
          </mxGeometry>
        </mxCell>
        <mxCell id="HrxNk1Lv7Z8qmX8g74zy-2" value=":It or Service Department&amp;nbsp;" style="shape=umlLifeline;perimeter=lifelinePerimeter;whiteSpace=wrap;html=1;container=1;collapsible=0;recursiveResize=0;outlineConnect=0;" parent="1" vertex="1">
          <mxGeometry x="300" y="120" width="100" height="150" as="geometry" />
        </mxCell>
        <mxCell id="HrxNk1Lv7Z8qmX8g74zy-6" value="Notify Submission Recieved()" style="html=1;verticalAlign=bottom;endArrow=block;rounded=0;" parent="HrxNk1Lv7Z8qmX8g74zy-2" target="1pNEQWMKTyDYFbz3F2On-1" edge="1">
          <mxGeometry width="80" relative="1" as="geometry">
            <mxPoint x="50" y="110" as="sourcePoint" />
            <mxPoint x="130" y="110" as="targetPoint" />
          </mxGeometry>
        </mxCell>
        <mxCell id="1pNEQWMKTyDYFbz3F2On-67" value="" style="shape=flexArrow;endArrow=none;html=1;rounded=0;startFill=0;" parent="HrxNk1Lv7Z8qmX8g74zy-2" edge="1">
          <mxGeometry width="50" height="50" relative="1" as="geometry">
            <mxPoint x="50" y="930" as="sourcePoint" />
            <mxPoint x="49.629999999999995" y="150" as="targetPoint" />
          </mxGeometry>
        </mxCell>
        <mxCell id="HrxNk1Lv7Z8qmX8g74zy-3" value=":Finance&amp;nbsp;" style="shape=umlLifeline;perimeter=lifelinePerimeter;whiteSpace=wrap;html=1;container=1;collapsible=0;recursiveResize=0;outlineConnect=0;" parent="1" vertex="1">
          <mxGeometry x="490" y="120" width="100" height="520" as="geometry" />
        </mxCell>
        <mxCell id="1pNEQWMKTyDYFbz3F2On-72" value="" style="shape=flexArrow;endArrow=none;html=1;rounded=0;startFill=0;" parent="HrxNk1Lv7Z8qmX8g74zy-3" edge="1">
          <mxGeometry width="50" height="50" relative="1" as="geometry">
            <mxPoint x="49.80000000000001" y="520" as="sourcePoint" />
            <mxPoint x="50" y="930" as="targetPoint" />
          </mxGeometry>
        </mxCell>
        <mxCell id="HrxNk1Lv7Z8qmX8g74zy-4" value="University Staff/&lt;div&gt;Club Coordinator&lt;/div&gt;" style="text;html=1;align=center;verticalAlign=middle;resizable=0;points=[];autosize=1;strokeColor=none;fillColor=none;" parent="1" vertex="1">
          <mxGeometry x="165" y="85" width="110" height="40" as="geometry" />
        </mxCell>
        <mxCell id="1pNEQWMKTyDYFbz3F2On-1" value=":Notification System&amp;nbsp;" style="shape=umlLifeline;perimeter=lifelinePerimeter;whiteSpace=wrap;html=1;container=1;collapsible=0;recursiveResize=0;outlineConnect=0;" parent="1" vertex="1">
          <mxGeometry x="680" y="120" width="100" height="950" as="geometry" />
        </mxCell>
        <mxCell id="1pNEQWMKTyDYFbz3F2On-5" value="" style="endArrow=classic;html=1;rounded=0;" parent="1" edge="1">
          <mxGeometry width="50" height="50" relative="1" as="geometry">
            <mxPoint x="729.5" y="272.9999999999998" as="sourcePoint" />
            <mxPoint x="219.75925925925935" y="272.9999999999998" as="targetPoint" />
          </mxGeometry>
        </mxCell>
        <mxCell id="1pNEQWMKTyDYFbz3F2On-8" value="Confirmation of Submission" style="edgeLabel;html=1;align=center;verticalAlign=middle;resizable=0;points=[];" parent="1pNEQWMKTyDYFbz3F2On-5" vertex="1" connectable="0">
          <mxGeometry x="0.0533" y="2" relative="1" as="geometry">
            <mxPoint as="offset" />
          </mxGeometry>
        </mxCell>
        <mxCell id="1pNEQWMKTyDYFbz3F2On-9" value="It/Service Decision&amp;nbsp;" style="swimlane;horizontal=0;whiteSpace=wrap;html=1;" parent="1" vertex="1">
          <mxGeometry x="170" y="300" width="600" height="750" as="geometry" />
        </mxCell>
        <mxCell id="1pNEQWMKTyDYFbz3F2On-13" value="" style="endArrow=classic;html=1;rounded=0;" parent="1pNEQWMKTyDYFbz3F2On-9" edge="1">
          <mxGeometry width="50" height="50" relative="1" as="geometry">
            <mxPoint x="159.5" y="39.99999999999977" as="sourcePoint" />
            <mxPoint x="29.759259259259352" y="39.99999999999977" as="targetPoint" />
          </mxGeometry>
        </mxCell>
        <mxCell id="1pNEQWMKTyDYFbz3F2On-14" value="Accept Request" style="edgeLabel;html=1;align=center;verticalAlign=middle;resizable=0;points=[];" parent="1pNEQWMKTyDYFbz3F2On-13" vertex="1" connectable="0">
          <mxGeometry x="0.2152" relative="1" as="geometry">
            <mxPoint x="15" as="offset" />
          </mxGeometry>
        </mxCell>
        <mxCell id="1pNEQWMKTyDYFbz3F2On-17" value="" style="endArrow=classic;html=1;rounded=0;" parent="1pNEQWMKTyDYFbz3F2On-9" edge="1">
          <mxGeometry width="50" height="50" relative="1" as="geometry">
            <mxPoint x="539.87" y="109.99999999999977" as="sourcePoint" />
            <mxPoint x="30.129259259259356" y="109.99999999999977" as="targetPoint" />
          </mxGeometry>
        </mxCell>
        <mxCell id="1pNEQWMKTyDYFbz3F2On-18" value="Request Accepted" style="edgeLabel;html=1;align=center;verticalAlign=middle;resizable=0;points=[];" parent="1pNEQWMKTyDYFbz3F2On-17" vertex="1" connectable="0">
          <mxGeometry x="0.1042" y="2" relative="1" as="geometry">
            <mxPoint as="offset" />
          </mxGeometry>
        </mxCell>
        <mxCell id="1pNEQWMKTyDYFbz3F2On-20" value="" style="endArrow=none;dashed=1;html=1;rounded=0;" parent="1pNEQWMKTyDYFbz3F2On-9" edge="1">
          <mxGeometry width="50" height="50" relative="1" as="geometry">
            <mxPoint x="29.759259259259352" y="129.99999999999977" as="sourcePoint" />
            <mxPoint x="600" y="130" as="targetPoint" />
          </mxGeometry>
        </mxCell>
        <mxCell id="1pNEQWMKTyDYFbz3F2On-21" value="Decline" style="text;html=1;align=center;verticalAlign=middle;resizable=0;points=[];autosize=1;strokeColor=none;fillColor=none;" parent="1pNEQWMKTyDYFbz3F2On-9" vertex="1">
          <mxGeometry x="30" y="128" width="60" height="30" as="geometry" />
        </mxCell>
        <mxCell id="1pNEQWMKTyDYFbz3F2On-31" value="" style="endArrow=none;dashed=1;html=1;rounded=0;" parent="1pNEQWMKTyDYFbz3F2On-9" edge="1">
          <mxGeometry width="50" height="50" relative="1" as="geometry">
            <mxPoint x="30" y="270" as="sourcePoint" />
            <mxPoint x="600" y="270" as="targetPoint" />
          </mxGeometry>
        </mxCell>
        <mxCell id="1pNEQWMKTyDYFbz3F2On-32" value="Forward to finance" style="text;html=1;align=center;verticalAlign=middle;resizable=0;points=[];autosize=1;strokeColor=none;fillColor=none;" parent="1pNEQWMKTyDYFbz3F2On-9" vertex="1">
          <mxGeometry x="20" y="270" width="120" height="30" as="geometry" />
        </mxCell>
        <mxCell id="1pNEQWMKTyDYFbz3F2On-37" value="" style="endArrow=classic;html=1;rounded=0;" parent="1pNEQWMKTyDYFbz3F2On-9" edge="1">
          <mxGeometry width="50" height="50" relative="1" as="geometry">
            <mxPoint x="559.87" y="339.9999999999998" as="sourcePoint" />
            <mxPoint x="50.129259259259356" y="339.9999999999998" as="targetPoint" />
          </mxGeometry>
        </mxCell>
        <mxCell id="1pNEQWMKTyDYFbz3F2On-38" value="Request Sent To Finance" style="edgeLabel;html=1;align=center;verticalAlign=middle;resizable=0;points=[];" parent="1pNEQWMKTyDYFbz3F2On-37" vertex="1" connectable="0">
          <mxGeometry x="0.2621" y="-2" relative="1" as="geometry">
            <mxPoint x="40" as="offset" />
          </mxGeometry>
        </mxCell>
        <mxCell id="1pNEQWMKTyDYFbz3F2On-39" value="Finance Decision" style="swimlane;horizontal=0;whiteSpace=wrap;html=1;" parent="1pNEQWMKTyDYFbz3F2On-9" vertex="1">
          <mxGeometry x="20" y="360" width="570" height="390" as="geometry" />
        </mxCell>
        <mxCell id="1pNEQWMKTyDYFbz3F2On-41" value="" style="endArrow=classic;html=1;rounded=0;" parent="1pNEQWMKTyDYFbz3F2On-39" edge="1">
          <mxGeometry width="50" height="50" relative="1" as="geometry">
            <mxPoint x="349.74" y="39.99999999999977" as="sourcePoint" />
            <mxPoint x="29.999259259259354" y="39.99999999999977" as="targetPoint" />
          </mxGeometry>
        </mxCell>
        <mxCell id="1pNEQWMKTyDYFbz3F2On-42" value="Approve Request" style="edgeLabel;html=1;align=center;verticalAlign=middle;resizable=0;points=[];" parent="1pNEQWMKTyDYFbz3F2On-41" vertex="1" connectable="0">
          <mxGeometry x="-0.2219" y="2" relative="1" as="geometry">
            <mxPoint as="offset" />
          </mxGeometry>
        </mxCell>
        <mxCell id="1pNEQWMKTyDYFbz3F2On-47" value="" style="endArrow=none;dashed=1;html=1;rounded=0;" parent="1pNEQWMKTyDYFbz3F2On-39" edge="1">
          <mxGeometry width="50" height="50" relative="1" as="geometry">
            <mxPoint x="30.129259259259356" y="139.99999999999977" as="sourcePoint" />
            <mxPoint x="539.87" y="139.99999999999977" as="targetPoint" />
          </mxGeometry>
        </mxCell>
        <mxCell id="1pNEQWMKTyDYFbz3F2On-53" value="" style="endArrow=classic;html=1;rounded=0;" parent="1pNEQWMKTyDYFbz3F2On-39" edge="1">
          <mxGeometry width="50" height="50" relative="1" as="geometry">
            <mxPoint x="349.5" y="180" as="sourcePoint" />
            <mxPoint x="29.759259259259352" y="180" as="targetPoint" />
          </mxGeometry>
        </mxCell>
        <mxCell id="1pNEQWMKTyDYFbz3F2On-54" value="Make as pending" style="edgeLabel;html=1;align=center;verticalAlign=middle;resizable=0;points=[];" parent="1pNEQWMKTyDYFbz3F2On-53" vertex="1" connectable="0">
          <mxGeometry x="-0.2219" y="2" relative="1" as="geometry">
            <mxPoint as="offset" />
          </mxGeometry>
        </mxCell>
        <mxCell id="1pNEQWMKTyDYFbz3F2On-55" value="" style="endArrow=classic;html=1;rounded=0;" parent="1pNEQWMKTyDYFbz3F2On-39" edge="1">
          <mxGeometry width="50" height="50" relative="1" as="geometry">
            <mxPoint x="350" y="230.00000000000023" as="sourcePoint" />
            <mxPoint x="530" y="230.00000000000023" as="targetPoint" />
          </mxGeometry>
        </mxCell>
        <mxCell id="1pNEQWMKTyDYFbz3F2On-56" value="Notify Pending Status" style="edgeLabel;html=1;align=center;verticalAlign=middle;resizable=0;points=[];" parent="1pNEQWMKTyDYFbz3F2On-55" vertex="1" connectable="0">
          <mxGeometry x="0.2227" y="3" relative="1" as="geometry">
            <mxPoint as="offset" />
          </mxGeometry>
        </mxCell>
        <mxCell id="1pNEQWMKTyDYFbz3F2On-57" value="" style="endArrow=classic;html=1;rounded=0;" parent="1pNEQWMKTyDYFbz3F2On-39" edge="1">
          <mxGeometry width="50" height="50" relative="1" as="geometry">
            <mxPoint x="540" y="250.00000000000023" as="sourcePoint" />
            <mxPoint x="30" y="250.00000000000023" as="targetPoint" />
            <Array as="points">
              <mxPoint x="280" y="250.00000000000023" />
            </Array>
          </mxGeometry>
        </mxCell>
        <mxCell id="1pNEQWMKTyDYFbz3F2On-58" value="Request Pending" style="edgeLabel;html=1;align=center;verticalAlign=middle;resizable=0;points=[];" parent="1pNEQWMKTyDYFbz3F2On-57" vertex="1" connectable="0">
          <mxGeometry x="0.2277" y="4" relative="1" as="geometry">
            <mxPoint as="offset" />
          </mxGeometry>
        </mxCell>
        <mxCell id="1pNEQWMKTyDYFbz3F2On-59" value="" style="endArrow=classic;html=1;rounded=0;" parent="1pNEQWMKTyDYFbz3F2On-39" edge="1">
          <mxGeometry width="50" height="50" relative="1" as="geometry">
            <mxPoint x="349.74" y="290" as="sourcePoint" />
            <mxPoint x="29.999259259259354" y="290" as="targetPoint" />
          </mxGeometry>
        </mxCell>
        <mxCell id="1pNEQWMKTyDYFbz3F2On-60" value="Decline Request" style="edgeLabel;html=1;align=center;verticalAlign=middle;resizable=0;points=[];" parent="1pNEQWMKTyDYFbz3F2On-59" vertex="1" connectable="0">
          <mxGeometry x="-0.2219" y="2" relative="1" as="geometry">
            <mxPoint as="offset" />
          </mxGeometry>
        </mxCell>
        <mxCell id="1pNEQWMKTyDYFbz3F2On-61" value="" style="endArrow=classic;html=1;rounded=0;" parent="1pNEQWMKTyDYFbz3F2On-39" edge="1">
          <mxGeometry width="50" height="50" relative="1" as="geometry">
            <mxPoint x="350" y="340" as="sourcePoint" />
            <mxPoint x="540" y="340.0000000000002" as="targetPoint" />
          </mxGeometry>
        </mxCell>
        <mxCell id="1pNEQWMKTyDYFbz3F2On-62" value="Notify Decline" style="edgeLabel;html=1;align=center;verticalAlign=middle;resizable=0;points=[];" parent="1pNEQWMKTyDYFbz3F2On-61" vertex="1" connectable="0">
          <mxGeometry x="0.2227" y="3" relative="1" as="geometry">
            <mxPoint as="offset" />
          </mxGeometry>
        </mxCell>
        <mxCell id="1pNEQWMKTyDYFbz3F2On-63" value="" style="endArrow=classic;html=1;rounded=0;" parent="1pNEQWMKTyDYFbz3F2On-39" edge="1">
          <mxGeometry width="50" height="50" relative="1" as="geometry">
            <mxPoint x="540" y="360.0000000000002" as="sourcePoint" />
            <mxPoint x="30" y="360.0000000000002" as="targetPoint" />
            <Array as="points">
              <mxPoint x="280" y="360.0000000000002" />
            </Array>
          </mxGeometry>
        </mxCell>
        <mxCell id="1pNEQWMKTyDYFbz3F2On-64" value="Request Declined" style="edgeLabel;html=1;align=center;verticalAlign=middle;resizable=0;points=[];" parent="1pNEQWMKTyDYFbz3F2On-63" vertex="1" connectable="0">
          <mxGeometry x="0.2277" y="4" relative="1" as="geometry">
            <mxPoint as="offset" />
          </mxGeometry>
        </mxCell>
        <mxCell id="1pNEQWMKTyDYFbz3F2On-65" value="" style="endArrow=none;dashed=1;html=1;rounded=0;" parent="1pNEQWMKTyDYFbz3F2On-39" edge="1">
          <mxGeometry width="50" height="50" relative="1" as="geometry">
            <mxPoint x="30.129999999999995" y="270" as="sourcePoint" />
            <mxPoint x="539.8707407407406" y="270" as="targetPoint" />
          </mxGeometry>
        </mxCell>
        <mxCell id="1pNEQWMKTyDYFbz3F2On-15" value="" style="endArrow=classic;html=1;rounded=0;" parent="1" edge="1">
          <mxGeometry width="50" height="50" relative="1" as="geometry">
            <mxPoint x="350" y="360" as="sourcePoint" />
            <mxPoint x="730" y="362" as="targetPoint" />
          </mxGeometry>
        </mxCell>
        <mxCell id="1pNEQWMKTyDYFbz3F2On-16" value="Notify Acceptance" style="edgeLabel;html=1;align=center;verticalAlign=middle;resizable=0;points=[];" parent="1pNEQWMKTyDYFbz3F2On-15" vertex="1" connectable="0">
          <mxGeometry x="-0.3446" y="1" relative="1" as="geometry">
            <mxPoint as="offset" />
          </mxGeometry>
        </mxCell>
        <mxCell id="1pNEQWMKTyDYFbz3F2On-19" value="Accept&amp;nbsp;" style="text;html=1;align=center;verticalAlign=middle;resizable=0;points=[];autosize=1;strokeColor=none;fillColor=none;" parent="1" vertex="1">
          <mxGeometry x="210" y="298" width="60" height="30" as="geometry" />
        </mxCell>
        <mxCell id="1pNEQWMKTyDYFbz3F2On-22" value="" style="endArrow=classic;html=1;rounded=0;" parent="1" edge="1">
          <mxGeometry width="50" height="50" relative="1" as="geometry">
            <mxPoint x="348.74074074074065" y="467" as="sourcePoint" />
            <mxPoint x="219" y="467" as="targetPoint" />
          </mxGeometry>
        </mxCell>
        <mxCell id="1pNEQWMKTyDYFbz3F2On-23" value="Decline Request" style="edgeLabel;html=1;align=center;verticalAlign=middle;resizable=0;points=[];" parent="1pNEQWMKTyDYFbz3F2On-22" vertex="1" connectable="0">
          <mxGeometry x="0.2152" relative="1" as="geometry">
            <mxPoint x="15" as="offset" />
          </mxGeometry>
        </mxCell>
        <mxCell id="1pNEQWMKTyDYFbz3F2On-24" value="" style="endArrow=classic;html=1;rounded=0;" parent="1" edge="1">
          <mxGeometry width="50" height="50" relative="1" as="geometry">
            <mxPoint x="729.1107407407407" y="537" as="sourcePoint" />
            <mxPoint x="219.37" y="537" as="targetPoint" />
          </mxGeometry>
        </mxCell>
        <mxCell id="1pNEQWMKTyDYFbz3F2On-25" value="Request Declined" style="edgeLabel;html=1;align=center;verticalAlign=middle;resizable=0;points=[];" parent="1pNEQWMKTyDYFbz3F2On-24" vertex="1" connectable="0">
          <mxGeometry x="0.1042" y="2" relative="1" as="geometry">
            <mxPoint as="offset" />
          </mxGeometry>
        </mxCell>
        <mxCell id="1pNEQWMKTyDYFbz3F2On-26" value="" style="endArrow=classic;html=1;rounded=0;" parent="1" edge="1">
          <mxGeometry width="50" height="50" relative="1" as="geometry">
            <mxPoint x="348.9999999999998" y="489.0000000000002" as="sourcePoint" />
            <mxPoint x="729.2407407407406" y="489.0000000000002" as="targetPoint" />
          </mxGeometry>
        </mxCell>
        <mxCell id="1pNEQWMKTyDYFbz3F2On-27" value="Notify Decliance" style="edgeLabel;html=1;align=center;verticalAlign=middle;resizable=0;points=[];" parent="1pNEQWMKTyDYFbz3F2On-26" vertex="1" connectable="0">
          <mxGeometry x="-0.3446" y="1" relative="1" as="geometry">
            <mxPoint as="offset" />
          </mxGeometry>
        </mxCell>
        <mxCell id="1pNEQWMKTyDYFbz3F2On-33" value="" style="endArrow=classic;html=1;rounded=0;" parent="1" source="HrxNk1Lv7Z8qmX8g74zy-2" target="HrxNk1Lv7Z8qmX8g74zy-3" edge="1">
          <mxGeometry width="50" height="50" relative="1" as="geometry">
            <mxPoint x="400" y="690" as="sourcePoint" />
            <mxPoint x="450" y="640" as="targetPoint" />
          </mxGeometry>
        </mxCell>
        <mxCell id="1pNEQWMKTyDYFbz3F2On-34" value="Forward Req for approval" style="edgeLabel;html=1;align=center;verticalAlign=middle;resizable=0;points=[];" parent="1pNEQWMKTyDYFbz3F2On-33" vertex="1" connectable="0">
          <mxGeometry x="-0.1706" y="-1" relative="1" as="geometry">
            <mxPoint x="14" as="offset" />
          </mxGeometry>
        </mxCell>
        <mxCell id="1pNEQWMKTyDYFbz3F2On-35" value="" style="endArrow=classic;html=1;rounded=0;" parent="1" edge="1">
          <mxGeometry width="50" height="50" relative="1" as="geometry">
            <mxPoint x="349.7592592592591" y="617.9999999999998" as="sourcePoint" />
            <mxPoint x="729.5" y="617.9999999999998" as="targetPoint" />
          </mxGeometry>
        </mxCell>
        <mxCell id="1pNEQWMKTyDYFbz3F2On-36" value="Notify Forwarder To Finance" style="edgeLabel;html=1;align=center;verticalAlign=middle;resizable=0;points=[];" parent="1pNEQWMKTyDYFbz3F2On-35" vertex="1" connectable="0">
          <mxGeometry x="-0.4217" y="-1" relative="1" as="geometry">
            <mxPoint as="offset" />
          </mxGeometry>
        </mxCell>
        <mxCell id="1pNEQWMKTyDYFbz3F2On-40" value="Finance Decision" style="text;html=1;align=center;verticalAlign=middle;resizable=0;points=[];autosize=1;strokeColor=none;fillColor=none;" parent="1" vertex="1">
          <mxGeometry x="210" y="658" width="120" height="30" as="geometry" />
        </mxCell>
        <mxCell id="1pNEQWMKTyDYFbz3F2On-45" value="" style="endArrow=classic;html=1;rounded=0;" parent="1" source="1pNEQWMKTyDYFbz3F2On-1" target="HrxNk1Lv7Z8qmX8g74zy-1" edge="1">
          <mxGeometry width="50" height="50" relative="1" as="geometry">
            <mxPoint x="400" y="770" as="sourcePoint" />
            <mxPoint x="450" y="720" as="targetPoint" />
            <Array as="points">
              <mxPoint x="470" y="770" />
            </Array>
          </mxGeometry>
        </mxCell>
        <mxCell id="1pNEQWMKTyDYFbz3F2On-46" value="Request Approved" style="edgeLabel;html=1;align=center;verticalAlign=middle;resizable=0;points=[];" parent="1pNEQWMKTyDYFbz3F2On-45" vertex="1" connectable="0">
          <mxGeometry x="0.2277" y="4" relative="1" as="geometry">
            <mxPoint as="offset" />
          </mxGeometry>
        </mxCell>
        <mxCell id="1pNEQWMKTyDYFbz3F2On-48" value="Pending" style="text;html=1;align=center;verticalAlign=middle;resizable=0;points=[];autosize=1;strokeColor=none;fillColor=none;" parent="1" vertex="1">
          <mxGeometry x="205" y="798" width="70" height="30" as="geometry" />
        </mxCell>
        <mxCell id="1pNEQWMKTyDYFbz3F2On-43" value="" style="endArrow=classic;html=1;rounded=0;exitX=0.5;exitY=0.67;exitDx=0;exitDy=0;exitPerimeter=0;" parent="1" source="HrxNk1Lv7Z8qmX8g74zy-3" target="1pNEQWMKTyDYFbz3F2On-1" edge="1">
          <mxGeometry width="50" height="50" relative="1" as="geometry">
            <mxPoint x="550" y="750" as="sourcePoint" />
            <mxPoint x="600" y="700" as="targetPoint" />
          </mxGeometry>
        </mxCell>
        <mxCell id="1pNEQWMKTyDYFbz3F2On-44" value="Notify Approval&amp;nbsp;" style="edgeLabel;html=1;align=center;verticalAlign=middle;resizable=0;points=[];" parent="1pNEQWMKTyDYFbz3F2On-43" vertex="1" connectable="0">
          <mxGeometry x="0.2227" y="3" relative="1" as="geometry">
            <mxPoint as="offset" />
          </mxGeometry>
        </mxCell>
        <mxCell id="1pNEQWMKTyDYFbz3F2On-66" value="Declined" style="text;html=1;align=center;verticalAlign=middle;resizable=0;points=[];autosize=1;strokeColor=none;fillColor=none;" parent="1" vertex="1">
          <mxGeometry x="215" y="928" width="70" height="30" as="geometry" />
        </mxCell>
      </root>
    </mxGraphModel>
  </diagram>
</mxfile>
